:SAMPLES-PER-SECOND 30
:FULLY-SPECIFIED
:DEGREES
368
root  15.0313 39.5919 -3.57817 -178.354 -40.4389 169.322
RightUpLeg  -3.25348 -4.51639 -18.3829
RightLeg  34.9838 -4.66607 -3.76981
RightFoot  -13.7882 -0.015088 3.66426
RightToes  0.00048216 0.542163 -0.142577
Spine  7.71857 0.117878 -0.827704
Spine1  10.8977 0.715307 -3.3052
HEad  2.8273 28.7115 -14.847
LeftShoulder1  8.23776 -12.5955 -44.5702
LeftArm  -8.38488 13.516 -25.9936
LeftForeArm  58.2669 -78.6693 -68.7897
LeftHand  -0.25398 0.0180481 5.50724
RightShoulder  4.70448 8.70051 32.6067
RightArm  -10.8603 -30.7076 20.1233
RightForeArm  49.2678 76.7736 111.451
RightHand  0.883868 -16.7785 -9.83443
LeftUpLeg  -0.387427 15.214 -5.75739
LeftLeg  15.982 24.5959 -0.219868
LeftFoot  -10.3115 0.0495705 1.36354
LeftToes  1.06243e-005 4.65856e-005 -8.18503e-006
369
root  14.0222 39.7552 -3.93236 -178.252 -43.5731 170.068
RightUpLeg  -7.95624 -5.89058 -14.5245
RightLeg  37.2888 -7.57228 -6.38845
RightFoot  -13.1119 -0.0511101 2.36593
RightToes  0.00048216 0.542163 -0.142577
Spine  7.27371 -0.442319 -1.34459
Spine1  11.2215 -0.363629 -1.50903
HEad  3.07099 27.9361 -14.2184
LeftShoulder1  8.1544 -12.6314 -43.9944
LeftArm  -8.98606 13.3195 -26.2061
LeftForeArm  57.1214 -78.5936 -68.0673
LeftHand  -0.25398 0.0180481 5.50724
RightShoulder  4.70826 8.74498 32.4975
RightArm  -11.3748 -30.0241 21.0582
RightForeArm  50.6411 76.6948 112.401
RightHand  0.890885 -16.9734 -9.75056
LeftUpLeg  1.61886 9.32538 -6.10231
LeftLeg  13.5642 27.8626 -1.09906
LeftFoot  -10.6248 0.0573139 1.05436
LeftToes  1.06243e-005 4.65856e-005 -8.18503e-006
370
root  13.0313 39.852 -4.3399 -177.506 -45.8508 170.414
RightUpLeg  -13.121 -7.93582 -11.21
RightLeg  36.8493 -9.25506 -7.62014
RightFoot  -11.3971 -0.077832 1.80147
RightToes  0.00048216 0.542163 -0.142577
Spine  6.45356 -0.497496 -2.05915
Spine1  11.5371 -0.812636 -0.0917239
HEad  2.97746 26.7211 -13.266
LeftShoulder1  8.07382 -12.664 -43.4432
LeftArm  -9.32917 12.945 -26.4862
LeftForeArm  57.7399 -78.6439 -68.791
LeftHand  -0.25398 0.0180481 5.50724
RightShoulder  4.70064 8.7495 32.4211
RightArm  -12.2075 -29.9955 22.023
RightForeArm  52.4415 76.5638 113.828
RightHand  0.872103 -17.0732 -9.49436
LeftUpLeg  3.39371 5.26073 -6.79681
LeftLeg  10.7875 29.8273 -2.19237
LeftFoot  -10.6786 0.0574946 1.19028
LeftToes  1.06243e-005 4.65856e-005 -8.18503e-006
371
root  12.0275 39.8444 -4.80108 -176.108 -47.799 169.861
RightUpLeg  -17.666 -10.0481 -8.59816
RightLeg  33.4785 -9.68008 -7.0657
RightFoot  -9.50247 -0.100474 2.21809
RightToes  0.00048216 0.542163 -0.142577
Spine  5.60787 -0.383032 -3.37838
Spine1  11.8319 -1.04391 1.04894
HEad  2.91232 25.2021 -12.039
LeftShoulder1  8.00635 -12.6278 -43.1614
LeftArm  -9.55591 12.3711 -26.6315
LeftForeArm  59.66 -78.7805 -70.6854
LeftHand  -0.25398 0.0180481 5.50724
RightShoulder  4.71619 8.76174 32.5097
RightArm  -13.3305 -30.1434 22.935
RightForeArm  53.9427 76.4401 115.063
RightHand  0.856292 -16.904 -9.47077
LeftUpLeg  5.16053 3.18674 -8.11027
LeftLeg  8.24611 29.7829 -2.8775
LeftFoot  -11.2545 0.0662284 1.39334
LeftToes  1.06243e-005 4.65856e-005 -8.18503e-006
372
root  10.9728 39.7186 -5.32025 -174.447 -49.9779 168.654
RightUpLeg  -20.9202 -12.4648 -6.44858
RightLeg  27.4565 -9.02271 -5.33593
RightFoot  -7.50179 -0.132421 2.46681
RightToes  0.00048216 0.542163 -0.142577
Spine  4.89488 -0.442707 -4.8722
Spine1  12.1801 -1.37606 1.88202
HEad  2.97744 23.529 -10.9256
LeftShoulder1  7.99045 -12.5738 -43.2237
LeftArm  -9.84942 11.6134 -26.5512
LeftForeArm  61.3001 -78.8868 -72.4038
LeftHand  -0.25398 0.0180481 5.50724
RightShoulder  4.74427 8.765 32.7283
RightArm  -14.6504 -30.2424 23.7937
RightForeArm  55.7228 76.267 116.637
RightHand  0.855987 -16.7663 -9.57244
LeftUpLeg  6.94298 2.38289 -9.54021
LeftLeg  6.9487 28.5281 -2.78389
LeftFoot  -12.5385 0.0844273 0.937828
LeftToes  1.06243e-005 4.65856e-005 -8.18503e-006
373
root  9.83342 39.5198 -5.89444 -172.921 -52.3874 167.441
RightUpLeg  -23.0012 -15.479 -4.41027
RightLeg  19.4293 -6.76114 -2.69773
RightFoot  -4.71426 -0.165738 2.30274
RightToes  0.00048216 0.542163 -0.142577
Spine  4.23594 -0.715983 -5.71714
Spine1  12.5363 -1.77084 2.27482
HEad  3.13481 21.8481 -10.23
LeftShoulder1  8.01508 -12.5518 -43.4276
LeftArm  -10.2434 10.9405 -26.4481
LeftForeArm  62.404 -78.9521 -73.6195
LeftHand  -0.25398 0.0180481 5.50724
RightShoulder  4.74854 8.71582 32.9186
RightArm  -15.9018 -30.3173 24.5541
RightForeArm  57.861 76.0208 118.653
RightHand  0.869146 -16.9698 -9.54459
LeftUpLeg  8.71043 2.05479 -10.3986
LeftLeg  6.83383 26.8492 -2.52448
LeftFoot  -13.9956 0.0962135 0.491427
LeftToes  1.06243e-005 4.65856e-005 -8.18503e-006
